{
	"asset":{
		"generator":"Khronos glTF Blender I/O v4.2.80",
		"version":"2.0"
	},
	"scene":0,
	"scenes":[
		{
			"name":"Scene",
			"nodes":[
				1
			]
		}
	],
	"nodes":[
		{
			"mesh":0,
			"name":"Cardridge_low"
		},
		{
			"children":[
				0
			],
			"name":"RootNode",
			"scale":[
				0.009999999776482582,
				0.009999999776482582,
				0.009999999776482582
			]
		}
	],
	"materials":[
		{
			"name":"CardridgeMat",
			"pbrMetallicRoughness":{
				"baseColorFactor":[
					0.0071356045082211494,
					0.0071356045082211494,
					0.0071356045082211494,
					1
				],
				"metallicFactor":0
			}
		},
		{
			"name":"BOTW",
			"pbrMetallicRoughness":{
				"baseColorFactor":[
					0.800000011920929,
					0.800000011920929,
					0.800000011920929,
					1
				],
				"metallicFactor":0
			}
		}
	],
	"meshes":[
		{
			"name":"Cardridge_low",
			"primitives":[
				{
					"attributes":{
						"POSITION":0,
						"NORMAL":1,
						"TEXCOORD_0":2
					},
					"indices":3,
					"material":0
				},
				{
					"attributes":{
						"POSITION":4,
						"NORMAL":5,
						"TEXCOORD_0":6
					},
					"indices":7,
					"material":1
				}
			]
		}
	],
	"accessors":[
		{
			"bufferView":0,
			"componentType":5126,
			"count":510,
			"max":[
				77.79956817626953,
				113.57186126708984,
				27.428985595703125
			],
			"min":[
				-77.79965209960938,
				-115.20350646972656,
				2.960129737854004
			],
			"type":"VEC3"
		},
		{
			"bufferView":1,
			"componentType":5126,
			"count":510,
			"type":"VEC3"
		},
		{
			"bufferView":2,
			"componentType":5126,
			"count":510,
			"type":"VEC2"
		},
		{
			"bufferView":3,
			"componentType":5123,
			"count":1344,
			"type":"SCALAR"
		},
		{
			"bufferView":4,
			"componentType":5126,
			"count":24,
			"max":[
				64.4224853515625,
				94.63607025146484,
				27.428943634033203
			],
			"min":[
				-64.4224853515625,
				-81.47727966308594,
				27.428905487060547
			],
			"type":"VEC3"
		},
		{
			"bufferView":5,
			"componentType":5126,
			"count":24,
			"type":"VEC3"
		},
		{
			"bufferView":6,
			"componentType":5126,
			"count":24,
			"type":"VEC2"
		},
		{
			"bufferView":7,
			"componentType":5123,
			"count":66,
			"type":"SCALAR"
		}
	],
	"bufferViews":[
		{
			"buffer":0,
			"byteLength":6120,
			"byteOffset":0,
			"target":34962
		},
		{
			"buffer":0,
			"byteLength":6120,
			"byteOffset":6120,
			"target":34962
		},
		{
			"buffer":0,
			"byteLength":4080,
			"byteOffset":12240,
			"target":34962
		},
		{
			"buffer":0,
			"byteLength":2688,
			"byteOffset":16320,
			"target":34963
		},
		{
			"buffer":0,
			"byteLength":288,
			"byteOffset":19008,
			"target":34962
		},
		{
			"buffer":0,
			"byteLength":288,
			"byteOffset":19296,
			"target":34962
		},
		{
			"buffer":0,
			"byteLength":192,
			"byteOffset":19584,
			"target":34962
		},
		{
			"buffer":0,
			"byteLength":132,
			"byteOffset":19776,
			"target":34963
		}
	],
	"buffers":[
		{
			"byteLength":19908,
			"uri":"Cartridge.bin"
		}
	]
}
